<?xml version="1.0" encoding="UTF-8" standalone="no"?>
<svg width="929px" height="250px" viewBox="0 0 929 250" version="1.1" xmlns="http://www.w3.org/2000/svg" xmlns:xlink="http://www.w3.org/1999/xlink" xmlns:sketch="http://www.bohemiancoding.com/sketch/ns">
    <!-- Generator: Sketch 3.4.4 (17249) - http://www.bohemiancoding.com/sketch -->
    <title>Group</title>
    <desc>Created with Sketch.</desc>
    <defs></defs>
    <g id="Page-1" stroke="none" stroke-width="1" fill="none" fill-rule="evenodd" sketch:type="MSPage">
        <g id="Group" sketch:type="MSLayerGroup">
            <circle id="Oval" fill="#7554A0" sketch:type="MSShapeGroup" cx="125" cy="125.1" r="124.5"></circle>
            <path d="M70.7637553,60.4814409 L70.7637553,138.113623 C70.7637553,147.233455 72.4736981,154.814202 75.8936352,160.856091 C80.9665417,169.975923 89.516256,174.53577 101.543035,174.53577 C115.963769,174.53577 125.767441,169.605435 130.954346,159.744617 C133.747294,154.386715 135.143748,147.176456 135.143748,138.113623 L135.143748,60.4814409 L152.414343,60.4814409 L152.414343,131.017289 C152.414343,146.464005 150.333913,158.348108 146.17299,166.669954 C138.53513,181.831675 124.114612,189.412422 102.911003,189.412422 C81.707393,189.412422 67.3153739,181.831675 59.7345135,166.669954 C55.5735901,158.348108 53.4931597,146.464005 53.4931597,131.017289 L53.4931597,60.4814409 L70.7637553,60.4814409 Z" id="U" fill="#FFFFFF" sketch:type="MSShapeGroup"></path>
            <g transform="translate(168.000000, 66.000000)" fill="#FFFFFF" sketch:type="MSShapeGroup">
                <path d="M26.6,38.9 C23.7,35.7 19.8,33.9 15.4,33.9 L15.4,33.9 C11.3,33.9 7.2,36 4.2,38.9 C1.3,42.1 0.1,46.2 0.4,50.6 L7.2,110.8 C7.8,114.9 11,118.4 15.1,118.4 C19.2,118.4 22.7,114.9 23,110.8 L29.8,50.3 C30.7,46.2 29.6,42.1 26.6,38.9 L26.6,38.9 Z" id="Shape"></path>
                <circle id="Oval" cx="15.5" cy="15.4" r="14.7"></circle>
            </g>
            <g transform="translate(310.000000, 142.000000)" id="Shape" fill="#ACA495" sketch:type="MSShapeGroup">
                <path d="M38.4,49.9 L37.7,40.2 L21,40.2 L15.5,49.9 L22.2,49.9 L20.5,56.8 L0.5,56.8 L2.2,49.9 L7.4,49.9 L34.2,4.5 L46.3,4.5 L50.9,49.9 L57.4,49.9 L55.7,56.8 L30.3,56.8 L32,49.9 L38.4,49.9 L38.4,49.9 Z M37.3,33.9 L36,14.2 L35.7,14.2 L24.6,33.9 L37.3,33.9 L37.3,33.9 Z"></path>
                <path d="M95,44.5 C94.6,46.2 94.4,47.3 94.4,48.3 C94.4,49.6 95.1,50.2 96,50.2 C97.7,50.2 99.2,48.4 101.2,42.5 L105.2,43.9 C102.2,53.2 97.8,57.5 92,57.5 C87.6,57.5 84.6,55.1 84.6,50.2 C84.6,49.6 84.7,48.9 84.8,48.2 L84.2,48 C81.1,54.5 76.8,57.6 71.8,57.6 C64.2,57.6 60.5,51.6 60.5,44.6 C60.5,36.5 64.1,28.6 68.3,24.3 C71.9,20.8 75.4,18.9 79.9,18.9 C84.7,18.9 87.6,22.4 88.4,26.2 L90.2,19.7 L101.6,19.7 L95,44.5 L95,44.5 Z M86.7,31 C86.7,27 85.4,25.1 82.7,25.1 C76.7,25.1 72.3,37.8 72.3,44.5 C72.3,48.8 74,50.3 76.2,50.3 C82.1,50.3 86.7,37.5 86.7,31 L86.7,31 Z"></path>
                <path d="M109.4,41.8 L118.2,8.9 L112.4,8.9 L114.1,2.2 L131.4,2.2 L120.4,41.9 C119.9,43.6 118.7,47.3 118.7,48.6 C118.7,49.9 119.4,50.2 120.1,50.2 C121.7,50.2 123.2,48.5 125.6,42.5 L129.7,43.9 C126.5,53 121.9,57.5 115.9,57.5 C110.9,57.5 107.8,54.7 107.8,49.8 C108,48 108.5,45.2 109.4,41.8 L109.4,41.8 Z"></path>
                <path d="M151.7,26.3 L147.3,42.7 C146.9,44.2 146.7,45.8 146.7,46.7 C146.7,49.1 148,49.9 149.5,49.9 C152.3,49.9 154.4,46.9 156.5,41.7 L160.8,43 C157.2,54.1 151.1,57.5 145.3,57.5 C139.7,57.5 135.2,54.8 135.2,48.5 C135.2,46.5 135.8,43.7 136.4,41.3 L140.5,26.3 L133.8,26.3 L135.2,20.7 L142,20.7 L144.5,11.5 L156.1,10.2 L153.3,20.8 L164.8,20.8 L163.3,26.4 L151.7,26.4 L151.7,26.3 Z"></path>
                <path d="M202.8,34.5 C202.8,47.1 192.2,57.6 180.6,57.6 C170.9,57.6 164.3,51.2 164.3,42.1 C164.3,29.5 174.9,18.9 186.5,18.9 C196.2,18.9 202.8,25.4 202.8,34.5 L202.8,34.5 Z M186.7,24 C179.8,24 176,39.7 176,46.4 C176,51.3 178,52.6 180.3,52.6 C187.3,52.6 191,36.9 191,30.2 C191.1,25.3 189.1,24 186.7,24 L186.7,24 Z"></path>
                <path d="M225.9,43.6 C225.9,41.4 226.5,38.4 227.1,36.1 L233.2,11.7 L226.6,11.7 L228.3,4.8 L254.3,4.8 L252.6,11.7 L245.7,11.7 L239.4,36.8 C238.8,39 238.6,40.8 238.6,42.4 C238.6,47.9 242.9,50.2 248.2,50.2 C251.6,50.2 254.5,49.2 256.8,46.9 C258.9,44.8 260.3,42 261.2,38 L267.8,11.6 L261,11.6 L262.7,4.7 L283.2,4.7 L281.5,11.6 L275.2,11.6 L268.2,39.8 C267,44.5 265.1,48.8 261.8,52.1 C258.2,55.7 252.9,57.9 245.3,57.9 C232.4,58 225.9,51.6 225.9,43.6 L225.9,43.6 Z"></path>
                <path d="M316.6,50.2 C318,50.2 319.6,48.5 322,42.5 L326.1,43.9 C322.9,53 318.1,57.5 312.3,57.5 C307.4,57.5 304.5,54.4 304.5,50 C304.5,42.9 309.8,34.4 309.8,29.5 C309.8,27.9 308.9,27.2 307.5,27.2 C304.4,27.2 298.3,31.1 291.8,56.7 L280.2,56.7 L286.9,31.4 C288.1,26.8 287.7,26 286.6,26 C285,26 283.2,29.1 281.1,33.8 L277,32.2 C280.6,23.7 284.8,18.8 290.8,18.8 C294.4,18.8 297,21.3 297,26.3 C297,28.4 296.8,31 295.6,35.1 L296.2,35.3 C301.6,23.4 307.7,18.7 313.7,18.7 C318.3,18.7 321.5,21.9 321.5,26.9 C321.5,34 315.3,44.3 315.3,48.5 C315.2,49.8 315.8,50.2 316.6,50.2 L316.6,50.2 Z"></path>
                <path d="M343.4,48.6 C343.4,49.8 344,50.2 344.8,50.2 C346.2,50.2 347.8,48.8 350.3,42.5 L354.4,43.9 C351.2,52.9 346.4,57.5 340.5,57.5 C335.8,57.5 332.4,54.6 332.4,49.7 C332.4,43.2 339,31.6 339,27.6 C339,26.4 338.5,26.1 337.8,26.1 C336.1,26.1 334.3,29.2 332.1,33.9 L328.1,32.3 C331.7,23.8 336.1,18.9 342.3,18.9 C346.7,18.9 349.8,21.9 349.8,26.4 C349.9,32.8 343.4,44.5 343.4,48.6 L343.4,48.6 Z M346.3,14 C342.9,14 340.4,11.8 340.4,8.2 C340.4,4.7 343.2,0.6 348,0.6 C351.5,0.6 354,2.9 354,6.5 C354,10 351.2,14 346.3,14 L346.3,14 Z"></path>
                <path d="M377.8,26 C377.8,32.6 372.5,40.4 372.5,45.1 C372.5,48.1 374.7,49.8 377.6,49.8 C385,49.8 390.7,37.2 390.6,30.4 C390,30.8 388.9,31.1 387.8,31.1 C384.8,31.1 382.4,29 382.4,25.5 C382.4,21.9 385.2,18.6 389,18.6 C393.2,18.6 396.6,21.4 396.6,28.5 C396.6,39.6 387.1,57.5 373.8,57.5 C366.5,57.5 361.4,52.5 361.4,46.4 C361.4,39.4 367.2,31.1 367.2,27.7 C367.2,26.6 366.7,26.2 366,26.2 C364.1,26.2 362.6,28.7 360.2,33.8 L356.1,32.2 C359.9,23.7 364.3,18.8 370.6,18.8 C375.2,19 377.8,21.9 377.8,26 L377.8,26 Z"></path>
                <path d="M411.3,41.8 L411.3,42.4 C411.3,49.4 415.1,51.4 419,51.4 C422.5,51.4 426,49.4 429.6,45.1 L433.1,47.9 C428.9,53.3 423.7,57.5 415.2,57.5 C405.9,57.5 399.7,51.8 399.7,42.7 C399.7,30.5 410.1,18.8 423.6,18.8 C431.4,18.8 435.8,22.6 435.8,28 C435.7,35.3 428.4,41.2 411.3,41.8 L411.3,41.8 Z M411.9,37.6 C422.2,36.9 425.3,32.2 425.3,28 C425.3,25.5 424.1,24 422,24 C417.1,23.9 413.2,31 411.9,37.6 L411.9,37.6 Z"></path>
                <path d="M447.5,31.5 C448.7,26.9 448.3,26.1 447.2,26.1 C445.6,26.1 443.8,29.2 441.7,33.9 L437.6,32.3 C441.2,23.8 445.4,18.9 451.4,18.9 C455,18.9 457.6,21.4 457.6,26.4 C457.6,28.5 457.4,30.9 456.3,34.5 L457,34.7 C461.4,24.3 465.1,18.8 471.1,18.8 C474.9,18.8 477.9,21.7 477.9,25.8 C477.9,30.2 475,33.7 471.2,33.7 C468.2,33.7 465.4,31.6 465.6,27.6 C463.9,28.3 458.7,32.3 452.5,56.6 L440.9,56.6 L447.5,31.5 L447.5,31.5 Z"></path>
                <path d="M492.1,57.6 C483,57.6 475.8,53.9 475.8,48.2 C475.8,44.6 478.3,42.1 481.6,42.1 C485.3,42.1 487.1,44.6 487.1,47.2 C487.1,48.8 486.5,50.4 485.4,51.6 C486.5,52.4 488.6,53.2 491.4,53.2 C495.5,53.2 497.6,51.1 497.6,48.1 C497.6,45.1 494.2,43.6 490.5,41.9 C485.4,39.4 480.5,37 480.5,31.5 C480.5,23.2 488.9,19 496.8,19 C505.7,19 511.6,23 511.6,27.9 C511.6,31.3 509.2,33.7 506,33.7 C502.2,33.7 500.4,31.2 500.4,28.9 C500.4,27.2 501,25.7 502,24.7 C501.4,24.1 499.5,23.5 497.4,23.5 C493.6,23.5 491.2,25.6 491.2,28.3 C491.2,31.5 494.9,32.9 499.7,35.3 C503.7,37.4 508.5,39.6 508.5,45.3 C508.5,53.6 500.6,57.6 492.1,57.6 L492.1,57.6 Z"></path>
                <path d="M528.8,48.6 C528.8,49.8 529.4,50.2 530.2,50.2 C531.6,50.2 533.2,48.8 535.7,42.5 L539.8,43.9 C536.6,52.9 531.8,57.5 525.9,57.5 C521.2,57.5 517.8,54.6 517.8,49.7 C517.8,43.2 524.4,31.6 524.4,27.6 C524.4,26.4 523.9,26.1 523.2,26.1 C521.5,26.1 519.7,29.2 517.5,33.9 L513.5,32.3 C517.1,23.8 521.5,18.9 527.7,18.9 C532.1,18.9 535.2,21.9 535.2,26.4 C535.2,32.8 528.8,44.5 528.8,48.6 L528.8,48.6 Z M531.7,14 C528.3,14 525.8,11.8 525.8,8.2 C525.8,4.7 528.6,0.6 533.4,0.6 C536.9,0.6 539.4,2.9 539.4,6.5 C539.4,10 536.6,14 531.7,14 L531.7,14 Z"></path>
                <path d="M561.9,26.3 L557.5,42.7 C557.1,44.2 556.9,45.8 556.9,46.7 C556.9,49.1 558.2,49.9 559.7,49.9 C562.5,49.9 564.6,46.9 566.7,41.7 L571,43 C567.4,54.1 561.3,57.5 555.5,57.5 C549.9,57.5 545.4,54.8 545.4,48.5 C545.4,46.5 546,43.7 546.6,41.3 L550.7,26.3 L544,26.3 L545.4,20.7 L552.2,20.7 L554.7,11.5 L566.3,10.2 L563.5,20.8 L575,20.8 L573.5,26.4 L561.9,26.4 L561.9,26.3 Z"></path>
                <path d="M594.9,26.1 C594.9,32.7 590.4,40.4 590.4,44.4 C590.4,46.2 591.3,46.9 592.8,46.9 C596.1,46.9 601.2,44 607.4,19.7 L618.1,19.7 L610.4,52.3 C606.9,66.8 597.8,70.6 588.5,70.6 C583.9,70.6 574.7,69.6 574.7,62.5 C574.7,59.7 576.9,56.5 580.7,56.5 C584.3,56.5 586.3,59 586.2,61.8 C586.2,63.5 585.2,65 584.3,65.8 C585.1,66 586,66.3 587.6,66.3 C593.8,66.3 597.2,62 599.5,52.6 L601.7,44.2 L601.2,44 C596.6,52.4 592,54.9 587.2,54.9 C581.7,54.9 578.9,51.3 578.9,46.8 C578.9,40.6 584.1,32.3 584.1,27.8 C584.1,26.8 583.5,26.4 583,26.4 C581.1,26.4 579.3,29.3 577.1,34 L573,32.4 C576.8,23.9 581.3,19 587.5,19 C592.2,19 594.9,21.9 594.9,26.1 L594.9,26.1 Z"></path>
            </g>
            <g transform="translate(320.000000, 55.000000)" id="Shape" fill="#050101" sketch:type="MSShapeGroup">
                <path d="M46.7,0.7 L46.7,39.3 C46.7,46.5 44.8,51 40.5,54.2 C36.1,57.4 30.3,59.1 23.8,59.1 C17.2,59.1 11.4,57.4 7,54.2 C2.7,51 0.8,46.5 0.8,39.3 L0.8,0.7 L13.7,0.7 L13.7,38.5 C13.7,42.4 14.3,44.1 16,45.7 C17.9,47.4 20.5,48.3 23.8,48.3 C27,48.3 29.6,47.4 31.5,45.7 C33.2,44.1 33.8,42.4 33.8,38.5 L33.8,0.7 L46.7,0.7 L46.7,0.7 Z"></path>
                <path d="M80.7,28.9 C80.2,25.7 77.8,24.2 73.7,24.2 C70.1,24.2 67.9,25.5 67.9,27.6 C67.9,29.1 69.2,29.9 73,30.8 L80.6,32.4 C85.7,33.4 88.2,34.5 90,36.4 C91.9,38.3 93.1,41.5 93.1,44.7 C93.1,53.4 86,58.9 74.5,58.9 C62.9,58.9 55.9,53.6 55.2,44.3 L66.6,44.3 C67.3,48.2 69.8,50 74.7,50 C78.6,50 81,48.5 81,46 C81,44.1 79.5,42.9 76.4,42.2 L68.9,40.5 C59.9,38.5 56.3,35.1 56.3,28.6 C56.3,20.2 62.9,15.2 73.9,15.2 C84.6,15.2 90.9,19.9 92.1,28.7 L80.7,28.7 L80.7,28.9 Z"></path>
                <path d="M111.5,40.7 C112.3,46.4 115.6,49.4 120.8,49.4 C124.1,49.4 126.4,48.3 128,45.7 L140.3,45.7 C138,53.8 130.4,58.9 120.4,58.9 C107.6,58.9 99.2,50.2 99.2,37.1 C99.2,24.2 107.9,15.3 120.4,15.3 C129.4,15.3 136,19.8 139,28 C140.4,31.6 140.9,35.1 140.9,40.7 L111.5,40.7 L111.5,40.7 Z M128.3,32.1 C127.8,27.2 125,24.6 120.2,24.6 C115.5,24.6 112.4,27.3 111.5,32.1 L128.3,32.1 L128.3,32.1 Z"></path>
                <path d="M161.5,16.4 L161.2,23.8 C163.6,17.1 166.7,15.2 175.5,15.3 L175.5,26.8 C174.1,26.6 173.9,26.6 172.4,26.6 C168.1,26.6 164.8,28.5 163.4,31.5 C162.2,34.3 161.8,38.2 161.8,46.2 L161.8,57.9 L149.6,57.9 L149.6,16.5 L161.5,16.5 L161.5,16.4 Z"></path>
                <path d="M221.4,57.8 L208.5,57.8 L208.5,0.7 L221.4,0.7 L221.4,57.8 L221.4,57.8 Z"></path>
                <path d="M244.6,16.4 L244.6,20.4 C249.1,16.4 251.7,15.2 255.9,15.2 C260.1,15.2 264,16.7 266.6,19.6 C269.2,22.3 270.4,25.9 270.4,31 L270.4,57.8 L258.2,57.8 L258.2,35.3 C258.2,31.1 257.9,29.5 256.9,28 C255.9,26.5 253.9,25.5 251.9,25.5 C249.9,25.5 248,26.4 246.7,27.8 C245.3,29.3 244.9,31 244.9,34.6 L244.9,57.8 L232.7,57.8 L232.7,16.4 L244.6,16.4 L244.6,16.4 Z"></path>
                <path d="M302.1,25.5 L294.6,25.5 L294.6,41.6 C294.6,48.1 294.9,48.6 297.7,48.6 L302.1,48.6 L302.1,57.8 L294.6,57.8 C289.3,57.8 286.6,57 284.8,55.1 C282.9,53 282.4,50.8 282.4,44.4 L282.4,25.6 L276.6,25.6 L276.6,17 L282.4,17 L282.4,3.9 L294.6,3.9 L294.6,17 L302.1,17 L302.1,25.5 L302.1,25.5 Z"></path>
                <path d="M319.2,40.7 C320,46.4 323.3,49.4 328.5,49.4 C331.8,49.4 334.1,48.3 335.7,45.7 L348,45.7 C345.7,53.8 338.1,58.9 328.1,58.9 C315.3,58.9 306.9,50.2 306.9,37.1 C306.9,24.2 315.6,15.3 328.1,15.3 C337.1,15.3 343.7,19.8 346.7,28 C348.1,31.6 348.6,35.1 348.6,40.7 L319.2,40.7 L319.2,40.7 Z M336.1,32.1 C335.6,27.2 332.8,24.6 328,24.6 C323.3,24.6 320.2,27.3 319.3,32.1 L336.1,32.1 L336.1,32.1 Z"></path>
                <path d="M369.3,16.4 L369,23.8 C371.4,17.1 374.5,15.2 383.3,15.3 L383.3,26.8 C381.9,26.6 381.7,26.6 380.2,26.6 C375.9,26.6 372.6,28.5 371.2,31.5 C370,34.3 369.6,38.2 369.6,46.2 L369.6,57.9 L357.4,57.9 L357.4,16.5 L369.3,16.5 L369.3,16.4 Z"></path>
                <path d="M413.2,25.5 L405.3,25.5 L405.3,57.8 L393.1,57.8 L393.1,25.5 L387.4,25.5 L387.4,17 L393.1,17 L393.1,14 C393.1,5.1 397.5,0.7 406.5,0.7 L413.2,0.7 L413.2,10.4 L409.6,10.4 C406.8,10.4 405.3,11.7 405.3,14.1 L405.3,17 L413.2,17 L413.2,25.5 L413.2,25.5 Z"></path>
                <path d="M419,29.5 C419.8,19.9 425.6,15.4 437.3,15.4 C443.6,15.4 448.4,16.8 451.6,19.7 C454.6,22.4 455.7,25.7 455.7,31.8 L455.7,50.8 C455.7,55.3 455.9,55.9 457.2,57.9 L444.8,57.9 C444.3,56.4 444.3,56.2 443.9,54.6 C439.8,58 437.1,59 432.1,59 C422.8,59 416.8,53.9 416.8,46.1 C416.8,38.3 421.7,34.3 433.3,32.4 L439.9,31.3 C442.6,30.9 443.6,30.1 443.6,28.5 C443.6,26.2 441.2,24.7 437.2,24.7 C432.8,24.7 430.4,26.2 429.9,29.6 L419,29.6 L419,29.5 Z M444,38.1 C442.7,38.6 441.6,39 439.5,39.4 L435.1,40.3 C430.7,41.3 428.8,42.8 428.8,45.3 C428.8,48 431.1,49.7 435,49.7 C439,49.7 441.9,48 443.9,44.5 L443.9,38.1 L444,38.1 Z"></path>
                <path d="M492.9,31.4 C492.2,27.5 489.5,25.2 485.4,25.2 C479.8,25.2 476.8,29.3 476.8,36.9 C476.8,44.8 479.8,49.1 485.5,49.1 C489.9,49.1 492.3,47 493.2,42 L505,42.6 C503.3,53.1 496.2,59 485.1,59 C472.4,59 464.5,50.7 464.5,37.3 C464.5,23.6 472.4,15.4 485.5,15.4 C496.4,15.4 503.7,21.6 504.4,31.4 L492.9,31.4 L492.9,31.4 Z"></path>
                <path d="M522.7,40.7 C523.5,46.4 526.8,49.4 532,49.4 C535.3,49.4 537.6,48.3 539.2,45.7 L551.5,45.7 C549.2,53.8 541.6,58.9 531.6,58.9 C518.8,58.9 510.4,50.2 510.4,37.1 C510.4,24.2 519.1,15.3 531.6,15.3 C540.6,15.3 547.2,19.8 550.2,28 C551.6,31.6 552.1,35.1 552.1,40.7 L522.7,40.7 L522.7,40.7 Z M539.6,32.1 C539.1,27.2 536.3,24.6 531.5,24.6 C526.8,24.6 523.7,27.3 522.8,32.1 L539.6,32.1 L539.6,32.1 Z"></path>
                <path d="M583.4,28.9 C582.9,25.7 580.5,24.2 576.4,24.2 C572.8,24.2 570.6,25.5 570.6,27.6 C570.6,29.1 571.9,29.9 575.7,30.8 L583.3,32.4 C588.4,33.4 590.9,34.5 592.7,36.4 C594.6,38.3 595.8,41.5 595.8,44.7 C595.8,53.4 588.7,58.9 577.2,58.9 C565.6,58.9 558.6,53.6 557.9,44.3 L569.3,44.3 C570,48.2 572.5,50 577.4,50 C581.3,50 583.7,48.5 583.7,46 C583.7,44.1 582.2,42.9 579.1,42.2 L571.6,40.5 C562.6,38.5 559,35.1 559,28.6 C559,20.2 565.6,15.2 576.6,15.2 C587.3,15.2 593.7,19.9 594.8,28.7 L583.4,28.7 L583.4,28.9 Z"></path>
            </g>
        </g>
    </g>
</svg>