<?xml version="1.0" encoding="utf-8"?>
<!-- Generator: Adobe Illustrator 18.1.1, SVG Export Plug-In . SVG Version: 6.00 Build 0)  -->
<svg version="1.1" id="图层_1" xmlns="http://www.w3.org/2000/svg" xmlns:xlink="http://www.w3.org/1999/xlink" x="0px" y="0px"
	 viewBox="0 0 1008 612" enable-background="new 0 0 1008 612" xml:space="preserve">
<circle fill="#7554A0" cx="145" cy="322.1" r="124.5"/>
<text transform="matrix(1 0 0 1 58.9585 383.078)" fill="#FFFFFF" font-family="'NimbusSan-Bol'" font-size="175.0999">U</text>
<g>
	<g>
		<path fill="#FFFFFF" d="M214.6,301.9c-2.9-3.2-6.8-5-11.2-5l0,0c-4.1,0-8.2,2.1-11.2,5c-2.9,3.2-4.1,7.3-3.8,11.7l6.8,60.2
			c0.6,4.1,3.8,7.6,7.9,7.6c4.1,0,7.6-3.5,7.9-7.6l6.8-60.5C218.7,309.2,217.6,305.1,214.6,301.9z"/>
		<circle fill="#FFFFFF" cx="203.5" cy="278.4" r="14.7"/>
	</g>
</g>
<g enable-background="new    ">
	<path fill="#ACA495" d="M368.4,388.9l-0.7-9.7H351l-5.5,9.7h6.7l-1.7,6.9h-20l1.7-6.9h5.2l26.8-45.4h12.1l4.6,45.4h6.5l-1.7,6.9
		h-25.4l1.7-6.9H368.4z M367.3,372.9l-1.3-19.7h-0.3l-11.1,19.7H367.3z"/>
	<path fill="#ACA495" d="M425,383.5c-0.4,1.7-0.6,2.8-0.6,3.8c0,1.3,0.7,1.9,1.6,1.9c1.7,0,3.2-1.8,5.2-7.7l4,1.4
		c-3,9.3-7.4,13.6-13.2,13.6c-4.4,0-7.4-2.4-7.4-7.3c0-0.6,0.1-1.3,0.2-2l-0.6-0.2c-3.1,6.5-7.4,9.6-12.4,9.6c-7.6,0-11.3-6-11.3-13
		c0-8.1,3.6-16,7.8-20.3c3.6-3.5,7.1-5.4,11.6-5.4c4.8,0,7.7,3.5,8.5,7.3l1.8-6.5h11.4L425,383.5z M416.7,370c0-4-1.3-5.9-4-5.9
		c-6,0-10.4,12.7-10.4,19.4c0,4.3,1.7,5.8,3.9,5.8C412.1,389.3,416.7,376.5,416.7,370z"/>
	<path fill="#ACA495" d="M439.4,380.8l8.8-32.9h-5.8l1.7-6.7h17.3l-11,39.7c-0.5,1.7-1.7,5.4-1.7,6.7c0,1.3,0.7,1.6,1.4,1.6
		c1.6,0,3.1-1.7,5.5-7.7l4.1,1.4c-3.2,9.1-7.8,13.6-13.8,13.6c-5,0-8.1-2.8-8.1-7.7C438,387,438.5,384.2,439.4,380.8z"/>
	<path fill="#ACA495" d="M481.7,365.3l-4.4,16.4c-0.4,1.5-0.6,3.1-0.6,4c0,2.4,1.3,3.2,2.8,3.2c2.8,0,4.9-3,7-8.2l4.3,1.3
		c-3.6,11.1-9.7,14.5-15.5,14.5c-5.6,0-10.1-2.7-10.1-9c0-2,0.6-4.8,1.2-7.2l4.1-15h-6.7l1.4-5.6h6.8l2.5-9.2l11.6-1.3l-2.8,10.6
		h11.5l-1.5,5.6H481.7z"/>
	<path fill="#ACA495" d="M532.8,373.5c0,12.6-10.6,23.1-22.2,23.1c-9.7,0-16.3-6.4-16.3-15.5c0-12.6,10.6-23.2,22.2-23.2
		C526.2,357.9,532.8,364.4,532.8,373.5z M516.7,363c-6.9,0-10.7,15.7-10.7,22.4c0,4.9,2,6.2,4.3,6.2c7,0,10.7-15.7,10.7-22.4
		C521.1,364.3,519.1,363,516.7,363z"/>
	<path fill="#ACA495" d="M555.9,382.6c0-2.2,0.6-5.2,1.2-7.5l6.1-24.4h-6.6l1.7-6.9h26l-1.7,6.9h-6.9l-6.3,25.1
		c-0.6,2.2-0.8,4-0.8,5.6c0,5.5,4.3,7.8,9.6,7.8c3.4,0,6.3-1,8.6-3.3c2.1-2.1,3.5-4.9,4.4-8.9l6.6-26.4H591l1.7-6.9h20.5l-1.7,6.9
		h-6.3l-7,28.2c-1.2,4.7-3.1,9-6.4,12.3c-3.6,3.6-8.9,5.8-16.5,5.8C562.4,397,555.9,390.6,555.9,382.6z"/>
	<path fill="#ACA495" d="M646.6,389.2c1.4,0,3-1.7,5.4-7.7l4.1,1.4c-3.2,9.1-8,13.6-13.8,13.6c-4.9,0-7.8-3.1-7.8-7.5
		c0-7.1,5.3-15.6,5.3-20.5c0-1.6-0.9-2.3-2.3-2.3c-3.1,0-9.2,3.9-15.7,29.5h-11.6l6.7-25.3c1.2-4.6,0.8-5.4-0.3-5.4
		c-1.6,0-3.4,3.1-5.5,7.8l-4.1-1.6c3.6-8.5,7.8-13.4,13.8-13.4c3.6,0,6.2,2.5,6.2,7.5c0,2.1-0.2,4.7-1.4,8.8l0.6,0.2
		c5.4-11.9,11.5-16.6,17.5-16.6c4.6,0,7.8,3.2,7.8,8.2c0,7.1-6.2,17.4-6.2,21.6C645.2,388.8,645.8,389.2,646.6,389.2z"/>
	<path fill="#ACA495" d="M673.4,387.6c0,1.2,0.6,1.6,1.4,1.6c1.4,0,3-1.4,5.5-7.7l4.1,1.4c-3.2,9-8,13.6-13.9,13.6
		c-4.7,0-8.1-2.9-8.1-7.8c0-6.5,6.6-18.1,6.6-22.1c0-1.2-0.5-1.5-1.2-1.5c-1.7,0-3.5,3.1-5.7,7.8l-4-1.6c3.6-8.5,8-13.4,14.2-13.4
		c4.4,0,7.5,3,7.5,7.5C679.9,371.8,673.4,383.5,673.4,387.6z M676.3,353c-3.4,0-5.9-2.2-5.9-5.8c0-3.5,2.8-7.6,7.6-7.6
		c3.5,0,6,2.3,6,5.9C684,349,681.2,353,676.3,353z"/>
	<path fill="#ACA495" d="M707.8,365c0,6.6-5.3,14.4-5.3,19.1c0,3,2.2,4.7,5.1,4.7c7.4,0,13.1-12.6,13-19.4c-0.6,0.4-1.7,0.7-2.8,0.7
		c-3,0-5.4-2.1-5.4-5.6c0-3.6,2.8-6.9,6.6-6.9c4.2,0,7.6,2.8,7.6,9.9c0,11.1-9.5,29-22.8,29c-7.3,0-12.4-5-12.4-11.1
		c0-7,5.8-15.3,5.8-18.7c0-1.1-0.5-1.5-1.2-1.5c-1.9,0-3.4,2.5-5.8,7.6l-4.1-1.6c3.8-8.5,8.2-13.4,14.5-13.4
		C705.2,358,707.8,360.9,707.8,365z"/>
	<path fill="#ACA495" d="M741.3,380.8v0.6c0,7,3.8,9,7.7,9c3.5,0,7-2,10.6-6.3l3.5,2.8c-4.2,5.4-9.4,9.6-17.9,9.6
		c-9.3,0-15.5-5.7-15.5-14.8c0-12.2,10.4-23.9,23.9-23.9c7.8,0,12.2,3.8,12.2,9.2C765.7,374.3,758.4,380.2,741.3,380.8z
		 M741.9,376.6c10.3-0.7,13.4-5.4,13.4-9.6c0-2.5-1.2-4-3.3-4C747.1,362.9,743.2,370,741.9,376.6z"/>
	<path fill="#ACA495" d="M777.5,370.5c1.2-4.6,0.8-5.4-0.3-5.4c-1.6,0-3.4,3.1-5.5,7.8l-4.1-1.6c3.6-8.5,7.8-13.4,13.8-13.4
		c3.6,0,6.2,2.5,6.2,7.5c0,2.1-0.2,4.5-1.3,8.1l0.7,0.2c4.4-10.4,8.1-15.9,14.1-15.9c3.8,0,6.8,2.9,6.8,7c0,4.4-2.9,7.9-6.7,7.9
		c-3,0-5.8-2.1-5.6-6.1c-1.7,0.7-6.9,4.7-13.1,29h-11.6L777.5,370.5z"/>
	<path fill="#ACA495" d="M822.1,396.6c-9.1,0-16.3-3.7-16.3-9.4c0-3.6,2.5-6.1,5.8-6.1c3.7,0,5.5,2.5,5.5,5.1c0,1.6-0.6,3.2-1.7,4.4
		c1.1,0.8,3.2,1.6,6,1.6c4.1,0,6.2-2.1,6.2-5.1s-3.4-4.5-7.1-6.2c-5.1-2.5-10-4.9-10-10.4c0-8.3,8.4-12.5,16.3-12.5
		c8.9,0,14.8,4,14.8,8.9c0,3.4-2.4,5.8-5.6,5.8c-3.8,0-5.6-2.5-5.6-4.8c0-1.7,0.6-3.2,1.6-4.2c-0.6-0.6-2.5-1.2-4.6-1.2
		c-3.8,0-6.2,2.1-6.2,4.8c0,3.2,3.7,4.6,8.5,7c4,2.1,8.8,4.3,8.8,10C838.5,392.6,830.6,396.6,822.1,396.6z"/>
	<path fill="#ACA495" d="M858.8,387.6c0,1.2,0.6,1.6,1.4,1.6c1.4,0,3-1.4,5.5-7.7l4.1,1.4c-3.2,9-8,13.6-13.9,13.6
		c-4.7,0-8.1-2.9-8.1-7.8c0-6.5,6.6-18.1,6.6-22.1c0-1.2-0.5-1.5-1.2-1.5c-1.7,0-3.5,3.1-5.7,7.8l-4-1.6c3.6-8.5,8-13.4,14.2-13.4
		c4.4,0,7.5,3,7.5,7.5C865.2,371.8,858.8,383.5,858.8,387.6z M861.7,353c-3.4,0-5.9-2.2-5.9-5.8c0-3.5,2.8-7.6,7.6-7.6
		c3.5,0,6,2.3,6,5.9C869.4,349,866.6,353,861.7,353z"/>
	<path fill="#ACA495" d="M891.9,365.3l-4.4,16.4c-0.4,1.5-0.6,3.1-0.6,4c0,2.4,1.3,3.2,2.8,3.2c2.8,0,4.9-3,7-8.2l4.3,1.3
		c-3.6,11.1-9.7,14.5-15.5,14.5c-5.6,0-10.1-2.7-10.1-9c0-2,0.6-4.8,1.2-7.2l4.1-15h-6.7l1.4-5.6h6.8l2.5-9.2l11.6-1.3l-2.8,10.6
		h11.5l-1.5,5.6H891.9z"/>
	<path fill="#ACA495" d="M924.9,365.1c0,6.6-4.5,14.3-4.5,18.3c0,1.8,0.9,2.5,2.4,2.5c3.3,0,8.4-2.9,14.6-27.2h10.7l-7.7,32.6
		c-3.5,14.5-12.6,18.3-21.9,18.3c-4.6,0-13.8-1-13.8-8.1c0-2.8,2.2-6,6-6c3.6,0,5.6,2.5,5.5,5.3c0,1.7-1,3.2-1.9,4
		c0.8,0.2,1.7,0.5,3.3,0.5c6.2,0,9.6-4.3,11.9-13.7l2.2-8.4l-0.5-0.2c-4.6,8.4-9.2,10.9-14,10.9c-5.5,0-8.3-3.6-8.3-8.1
		c0-6.2,5.2-14.5,5.2-19c0-1-0.6-1.4-1.1-1.4c-1.9,0-3.7,2.9-5.9,7.6l-4.1-1.6c3.8-8.5,8.3-13.4,14.5-13.4
		C922.2,358,924.9,360.9,924.9,365.1z"/>
</g>
<g enable-background="new    ">
	<path fill="#050101" d="M386.7,252.7v38.6c0,7.2-1.9,11.7-6.2,14.9c-4.4,3.2-10.2,4.9-16.7,4.9c-6.6,0-12.4-1.7-16.8-4.9
		c-4.3-3.2-6.2-7.7-6.2-14.9v-38.6h12.9v37.8c0,3.9,0.6,5.6,2.3,7.2c1.9,1.7,4.5,2.6,7.8,2.6c3.2,0,5.8-0.9,7.7-2.6
		c1.7-1.6,2.3-3.3,2.3-7.2v-37.8H386.7z"/>
	<path fill="#050101" d="M420.7,280.9c-0.5-3.2-2.9-4.7-7-4.7c-3.6,0-5.8,1.3-5.8,3.4c0,1.5,1.3,2.3,5.1,3.2l7.6,1.6
		c5.1,1,7.6,2.1,9.4,4c1.9,1.9,3.1,5.1,3.1,8.3c0,8.7-7.1,14.2-18.6,14.2c-11.6,0-18.6-5.3-19.3-14.6h11.4c0.7,3.9,3.2,5.7,8.1,5.7
		c3.9,0,6.3-1.5,6.3-4c0-1.9-1.5-3.1-4.6-3.8l-7.5-1.7c-9-2-12.6-5.4-12.6-11.9c0-8.4,6.6-13.4,17.6-13.4c10.7,0,17,4.7,18.2,13.5
		H420.7z"/>
	<path fill="#050101" d="M451.5,292.7c0.8,5.7,4.1,8.7,9.3,8.7c3.3,0,5.6-1.1,7.2-3.7h12.3c-2.3,8.1-9.9,13.2-19.9,13.2
		c-12.8,0-21.2-8.7-21.2-21.8c0-12.9,8.7-21.8,21.2-21.8c9,0,15.6,4.5,18.6,12.7c1.4,3.6,1.9,7.1,1.9,12.7H451.5z M468.3,284.1
		c-0.5-4.9-3.3-7.5-8.1-7.5c-4.7,0-7.8,2.7-8.7,7.5H468.3z"/>
	<path fill="#050101" d="M501.5,268.4l-0.3,7.4c2.4-6.7,5.5-8.6,14.3-8.5v11.5c-1.4-0.2-1.6-0.2-3.1-0.2c-4.3,0-7.6,1.9-9,4.9
		c-1.2,2.8-1.6,6.7-1.6,14.7v11.7h-12.2v-41.4H501.5z"/>
	<path fill="#050101" d="M561.4,309.8h-12.9v-57.1h12.9V309.8z"/>
	<path fill="#050101" d="M584.6,268.4v4c4.5-4,7.1-5.2,11.3-5.2s8.1,1.5,10.7,4.4c2.6,2.7,3.8,6.3,3.8,11.4v26.8h-12.2v-22.5
		c0-4.2-0.3-5.8-1.3-7.3c-1-1.5-3-2.5-5-2.5s-3.9,0.9-5.2,2.3c-1.4,1.5-1.8,3.2-1.8,6.8v23.2h-12.2v-41.4H584.6z"/>
	<path fill="#050101" d="M642.1,277.5h-7.5v16.1c0,6.5,0.3,7,3.1,7h4.4v9.2h-7.5c-5.3,0-8-0.8-9.8-2.7c-1.9-2.1-2.4-4.3-2.4-10.7
		v-18.8h-5.8V269h5.8v-13.1h12.2V269h7.5V277.5z"/>
	<path fill="#050101" d="M659.2,292.7c0.8,5.7,4.1,8.7,9.3,8.7c3.3,0,5.6-1.1,7.2-3.7h12.3c-2.3,8.1-9.9,13.2-19.9,13.2
		c-12.8,0-21.2-8.7-21.2-21.8c0-12.9,8.7-21.8,21.2-21.8c9,0,15.6,4.5,18.6,12.7c1.4,3.6,1.9,7.1,1.9,12.7H659.2z M676.1,284.1
		c-0.5-4.9-3.3-7.5-8.1-7.5c-4.7,0-7.8,2.7-8.7,7.5H676.1z"/>
	<path fill="#050101" d="M709.3,268.4l-0.3,7.4c2.4-6.7,5.5-8.6,14.3-8.5v11.5c-1.4-0.2-1.6-0.2-3.1-0.2c-4.3,0-7.6,1.9-9,4.9
		c-1.2,2.8-1.6,6.7-1.6,14.7v11.7h-12.2v-41.4H709.3z"/>
	<path fill="#050101" d="M753.2,277.5h-7.9v32.3h-12.2v-32.3h-5.7V269h5.7v-3c0-8.9,4.4-13.3,13.4-13.3h6.7v9.7h-3.6
		c-2.8,0-4.3,1.3-4.3,3.7v2.9h7.9V277.5z"/>
	<path fill="#050101" d="M759,281.5c0.8-9.6,6.6-14.1,18.3-14.1c6.3,0,11.1,1.4,14.3,4.3c3,2.7,4.1,6,4.1,12.1v19
		c0,4.5,0.2,5.1,1.5,7.1h-12.4c-0.5-1.5-0.5-1.7-0.9-3.3c-4.1,3.4-6.8,4.4-11.8,4.4c-9.3,0-15.3-5.1-15.3-12.9
		c0-7.8,4.9-11.8,16.5-13.7l6.6-1.1c2.7-0.4,3.7-1.2,3.7-2.8c0-2.3-2.4-3.8-6.4-3.8c-4.4,0-6.8,1.5-7.3,4.9H759z M784,290.1
		c-1.3,0.5-2.4,0.9-4.5,1.3l-4.4,0.9c-4.4,1-6.3,2.5-6.3,5c0,2.7,2.3,4.4,6.2,4.4c4,0,6.9-1.7,8.9-5.2V290.1z"/>
	<path fill="#050101" d="M832.9,283.4c-0.7-3.9-3.4-6.2-7.5-6.2c-5.6,0-8.6,4.1-8.6,11.7c0,7.9,3,12.2,8.7,12.2
		c4.4,0,6.8-2.1,7.7-7.1l11.8,0.6c-1.7,10.5-8.8,16.4-19.9,16.4c-12.7,0-20.6-8.3-20.6-21.7c0-13.7,7.9-21.9,21-21.9
		c10.9,0,18.2,6.2,18.9,16H832.9z"/>
	<path fill="#050101" d="M862.7,292.7c0.8,5.7,4.1,8.7,9.3,8.7c3.3,0,5.6-1.1,7.2-3.7h12.3c-2.3,8.1-9.9,13.2-19.9,13.2
		c-12.8,0-21.2-8.7-21.2-21.8c0-12.9,8.7-21.8,21.2-21.8c9,0,15.6,4.5,18.6,12.7c1.4,3.6,1.9,7.1,1.9,12.7H862.7z M879.6,284.1
		c-0.5-4.9-3.3-7.5-8.1-7.5c-4.7,0-7.8,2.7-8.7,7.5H879.6z"/>
	<path fill="#050101" d="M923.4,280.9c-0.5-3.2-2.9-4.7-7-4.7c-3.6,0-5.8,1.3-5.8,3.4c0,1.5,1.3,2.3,5.1,3.2l7.6,1.6
		c5.1,1,7.6,2.1,9.4,4c1.9,1.9,3.1,5.1,3.1,8.3c0,8.7-7.1,14.2-18.6,14.2c-11.6,0-18.6-5.3-19.3-14.6h11.4c0.7,3.9,3.2,5.7,8.1,5.7
		c3.9,0,6.3-1.5,6.3-4c0-1.9-1.5-3.1-4.6-3.8l-7.5-1.7c-9-2-12.6-5.4-12.6-11.9c0-8.4,6.6-13.4,17.6-13.4c10.7,0,17.1,4.7,18.2,13.5
		H923.4z"/>
</g>
</svg>
